<?xml version="1.0" encoding="UTF-8"?>
<svg id="Layer_1" data-name="Layer 1" xmlns="http://www.w3.org/2000/svg" viewBox="0 0 183.28 297.58">
  <defs>
    <style>
      .cls-1 {
        fill: #000;
      }

      .cls-1, .cls-2 {
        stroke-width: 0px;
      }

      .cls-2 {
        fill: none;
      }
    </style>
  </defs>
  <polygon class="cls-1" points="0 291.16 3.85 297.21 0 297.21 0 291.16"/>
  <polygon class="cls-1" points="0 275.19 14.01 297.21 8.94 297.21 0 283.16 0 275.19"/>
  <polygon class="cls-1" points="0 259.21 24.18 297.21 19.1 297.21 0 267.2 0 259.21"/>
  <polygon class="cls-1" points="0 243.24 34.35 297.21 29.26 297.21 0 251.23 0 243.24"/>
  <polygon class="cls-1" points="0 227.68 44.25 297.21 39.29 297.21 0 235.46 0 227.68"/>
  <polygon class="cls-1" points="54.15 297.21 49.2 297.21 .6 220.85 5.56 220.85 54.15 297.21"/>
  <polygon class="cls-1" points="64.05 297.21 59.1 297.21 10.51 220.85 15.46 220.85 64.05 297.21"/>
  <polygon class="cls-1" points="73.95 297.21 69 297.21 20.41 220.85 25.36 220.85 73.95 297.21"/>
  <polygon class="cls-1" points="0 165.44 .91 166.87 0 166.87 0 165.44"/>
  <polygon class="cls-1" points="83.85 297.21 78.9 297.21 27.07 215.76 27.07 207.98 83.85 297.21"/>
  <polygon class="cls-1" points="10.81 166.87 5.86 166.87 0 157.66 0 149.88 10.81 166.87"/>
  <polygon class="cls-1" points="93.75 297.21 88.81 297.21 27.07 200.2 27.07 192.42 93.75 297.21"/>
  <polygon class="cls-1" points="20.71 166.87 15.77 166.87 0 142.09 0 134.32 20.71 166.87"/>
  <polygon class="cls-1" points="103.66 297.21 98.71 297.21 27.07 184.63 27.07 176.86 103.66 297.21"/>
  <polygon class="cls-1" points="113.56 297.21 108.61 297.21 27.07 169.08 27.07 166.87 25.66 166.87 0 126.54 0 118.75 113.56 297.21"/>
  <polygon class="cls-1" points="0 103.19 123.46 297.21 118.51 297.21 0 110.98 0 103.19"/>
  <polygon class="cls-1" points="0 87.63 133.37 297.21 128.41 297.21 0 95.42 0 87.63"/>
  <polygon class="cls-1" points="0 72.08 143.27 297.21 138.31 297.21 0 79.85 0 72.08"/>
  <polygon class="cls-1" points="0 56.51 153.17 297.21 148.22 297.21 0 64.29 0 56.51"/>
  <polygon class="cls-1" points="0 40.95 163.08 297.21 158.12 297.21 0 48.74 0 40.95"/>
  <polygon class="cls-1" points="0 25.4 172.98 297.21 168.02 297.21 0 33.17 0 25.4"/>
  <polygon class="cls-1" points="0 9.83 182.88 297.21 177.92 297.21 0 17.61 0 9.83"/>
  <polygon class="cls-1" points="183.28 2.06 183.28 10.12 176.84 0 181.97 0 183.28 2.06"/>
  <polygon class="cls-1" points="171.99 0 183.28 17.75 183.28 25.53 167.04 0 171.99 0"/>
  <polygon class="cls-1" points="162.08 0 183.28 33.31 183.28 41.08 157.14 0 162.08 0"/>
  <polygon class="cls-1" points="152.18 0 183.28 48.87 183.28 56.65 147.23 0 152.18 0"/>
  <polygon class="cls-1" points="142.28 0 183.28 64.43 183.28 72.21 137.33 0 142.28 0"/>
  <polygon class="cls-1" points="132.38 0 183.28 80 183.28 87.77 127.42 0 132.38 0"/>
  <polygon class="cls-1" points="122.48 0 183.28 95.55 183.28 103.34 117.52 0 122.48 0"/>
  <polygon class="cls-1" points="112.57 0 183.28 111.11 183.28 118.9 107.62 0 112.57 0"/>
  <polygon class="cls-1" points="102.67 0 183.28 126.68 183.28 134.46 97.71 0 102.67 0"/>
  <polygon class="cls-1" points="92.77 0 183.28 142.23 183.28 150.01 87.82 0 92.77 0"/>
  <polygon class="cls-1" points="82.86 0 183.28 157.79 183.28 165.57 77.92 0 82.86 0"/>
  <polygon class="cls-1" points="72.96 0 183.28 173.35 183.28 181.13 68.01 0 72.96 0"/>
  <polygon class="cls-1" points="63.06 0 183.28 188.92 183.28 196.69 58.11 0 63.06 0"/>
  <polygon class="cls-1" points="53.15 0 183.28 204.48 183.28 212.26 48.21 0 53.15 0"/>
  <polygon class="cls-1" points="43.26 0 183.28 220.04 183.28 227.82 38.3 0 43.26 0"/>
  <polygon class="cls-1" points="33.36 0 183.28 235.6 183.28 243.38 28.4 0 33.36 0"/>
  <polygon class="cls-1" points="23.46 0 183.28 251.16 183.28 258.95 18.5 0 23.46 0"/>
  <polygon class="cls-1" points="182.85 266.04 183.28 266.71 183.28 274.51 8.6 0 13.55 0 182.85 266.04"/>
  <polygon class="cls-1" points="3.65 0 183.28 282.29 183.28 290.06 0 2.05 0 0 3.65 0"/>
  <line class="cls-2" x1="183.28" y1="2.06" x2="181.97" y2="0"/>
  <line class="cls-2" x1="183.28" y1="10.12" x2="176.84" y2="0"/>
  <line class="cls-2" x1="183.28" y1="17.75" x2="171.99" y2="0"/>
  <line class="cls-2" x1="183.28" y1="25.53" x2="167.04" y2="0"/>
  <line class="cls-2" x1="183.28" y1="33.31" x2="162.08" y2="0"/>
  <line class="cls-2" x1="183.28" y1="41.08" x2="157.14" y2="0"/>
  <line class="cls-2" x1="183.28" y1="48.87" x2="152.18" y2="0"/>
  <line class="cls-2" x1="183.28" y1="56.65" x2="147.23" y2="0"/>
  <line class="cls-2" x1="183.28" y1="64.43" x2="142.28" y2="0"/>
  <line class="cls-2" x1="183.28" y1="72.21" x2="137.33" y2="0"/>
  <line class="cls-2" x1="183.28" y1="80" x2="132.38" y2="0"/>
  <line class="cls-2" x1="183.28" y1="87.77" x2="127.42" y2="0"/>
  <line class="cls-2" x1="183.28" y1="95.55" x2="122.48" y2="0"/>
  <line class="cls-2" x1="183.28" y1="103.34" x2="117.52" y2="0"/>
  <line class="cls-2" x1="183.28" y1="111.11" x2="112.57" y2="0"/>
  <line class="cls-2" x1="183.28" y1="118.9" x2="107.62" y2="0"/>
  <line class="cls-2" x1="183.28" y1="126.68" x2="102.67" y2="0"/>
  <line class="cls-2" x1="183.28" y1="134.46" x2="97.71" y2="0"/>
  <line class="cls-2" x1="183.28" y1="142.23" x2="92.77" y2="0"/>
  <line class="cls-2" x1="183.28" y1="150.01" x2="87.82" y2="0"/>
  <line class="cls-2" x1="183.28" y1="157.79" x2="82.86" y2="0"/>
  <line class="cls-2" x1="183.28" y1="165.57" x2="77.92" y2="0"/>
  <line class="cls-2" x1="183.28" y1="173.35" x2="72.96" y2="0"/>
  <line class="cls-2" x1="183.28" y1="181.13" x2="68.01" y2="0"/>
  <line class="cls-2" x1="183.28" y1="188.92" x2="63.06" y2="0"/>
  <line class="cls-2" x1="183.28" y1="196.69" x2="58.11" y2="0"/>
  <line class="cls-2" x1="183.28" y1="204.48" x2="53.15" y2="0"/>
  <line class="cls-2" x1="183.28" y1="212.26" x2="48.21" y2="0"/>
  <line class="cls-2" x1="183.28" y1="220.04" x2="43.26" y2="0"/>
  <line class="cls-2" x1="183.28" y1="227.82" x2="38.3" y2="0"/>
  <line class="cls-2" x1="183.28" y1="235.6" x2="33.36" y2="0"/>
  <line class="cls-2" x1="183.28" y1="243.38" x2="28.4" y2="0"/>
  <line class="cls-2" x1="183.28" y1="251.16" x2="23.46" y2="0"/>
  <line class="cls-2" x1="183.28" y1="258.95" x2="18.5" y2="0"/>
  <polygon class="cls-1" points="13.55 0 182.85 266.04 183.28 266.71 13.55 0"/>
  <line class="cls-2" x1="183.28" y1="274.51" x2="8.6" y2="0"/>
  <line class="cls-2" x1="183.28" y1="282.29" x2="3.65" y2="0"/>
  <line class="cls-2" x1="183.28" y1="290.06" y2="2.05"/>
  <line class="cls-2" x1="182.88" y1="297.21" y2="9.83"/>
  <line class="cls-2" x1="177.92" y1="297.21" y2="17.61"/>
  <line class="cls-2" x1="172.98" y1="297.21" y2="25.4"/>
  <line class="cls-2" x1="168.02" y1="297.21" y2="33.17"/>
  <line class="cls-2" x1="163.08" y1="297.21" y2="40.95"/>
  <polygon class="cls-1" points="0 48.74 158.12 297.21 158.36 297.58 0 48.74"/>
  <line class="cls-2" x1="153.17" y1="297.21" y2="56.51"/>
  <line class="cls-2" x1="148.22" y1="297.21" y2="64.29"/>
  <line class="cls-2" x1="143.27" y1="297.21" y2="72.08"/>
  <line class="cls-2" x1="138.31" y1="297.21" y2="79.85"/>
  <line class="cls-2" x1="133.37" y1="297.21" y2="87.63"/>
  <line class="cls-2" x1="128.41" y1="297.21" y2="95.42"/>
  <line class="cls-2" x1="123.46" y1="297.21" y2="103.19"/>
  <line class="cls-2" x1="118.51" y1="297.21" y2="110.98"/>
  <line class="cls-2" x1="113.56" y1="297.21" y2="118.75"/>
  <line class="cls-2" x1="108.61" y1="297.21" x2="27.07" y2="169.08"/>
  <line class="cls-2" x1="25.66" y1="166.87" y2="126.54"/>
  <line class="cls-2" x1="20.71" y1="166.87" y2="134.32"/>
  <line class="cls-2" x1="103.66" y1="297.21" x2="27.07" y2="176.86"/>
  <line class="cls-2" x1="15.77" y1="166.87" y2="142.09"/>
  <line class="cls-2" x1="98.71" y1="297.21" x2="27.07" y2="184.63"/>
  <line class="cls-2" x1="10.81" y1="166.87" y2="149.88"/>
  <line class="cls-2" x1="93.75" y1="297.21" x2="27.07" y2="192.42"/>
  <line class="cls-2" x1="5.86" y1="166.87" y2="157.66"/>
  <line class="cls-2" x1="88.81" y1="297.21" x2="27.07" y2="200.2"/>
  <line class="cls-2" x1=".91" y1="166.87" y2="165.44"/>
  <line class="cls-2" x1="83.85" y1="297.21" x2="27.07" y2="207.98"/>
  <line class="cls-2" x1="78.9" y1="297.21" x2="27.07" y2="215.76"/>
  <line class="cls-2" x1="73.95" y1="297.21" x2="25.36" y2="220.85"/>
  <line class="cls-2" x1="69" y1="297.21" x2="20.41" y2="220.85"/>
  <line class="cls-2" x1="64.05" y1="297.21" x2="15.46" y2="220.85"/>
  <line class="cls-2" x1="59.1" y1="297.21" x2="10.51" y2="220.85"/>
  <line class="cls-2" x1="54.15" y1="297.21" x2="5.56" y2="220.85"/>
  <line class="cls-2" x1="49.2" y1="297.21" x2=".6" y2="220.85"/>
  <line class="cls-2" x1="44.25" y1="297.21" y2="227.68"/>
  <line class="cls-2" x1="39.29" y1="297.21" y2="235.46"/>
  <line class="cls-2" x1="3.85" y1="297.21" y2="291.16"/>
  <line class="cls-2" x1="8.94" y1="297.21" y2="283.16"/>
  <line class="cls-2" x1="14.01" y1="297.21" y2="275.19"/>
  <line class="cls-2" x1="19.1" y1="297.21" y2="267.2"/>
  <line class="cls-2" x1="24.18" y1="297.21" y2="259.21"/>
  <line class="cls-2" x1="29.26" y1="297.21" y2="251.23"/>
  <line class="cls-2" x1="34.35" y1="297.21" y2="243.24"/>
</svg>