<?xml version="1.0" encoding="utf-8"?>
<!-- Generator: Fusion 360, Shaper Origin Export Add-In, Version 1.7.0  -->
<svg xmlns="http://www.w3.org/2000/svg" xmlns:xlink="http://www.w3.org/1999/xlink" xmlns:shaper="http://www.shapertools.com/namespaces/shaper" shaper:fusionaddin="version:1.7.0" width="7.8cm" height="10cm" version="1.1" x="0cm" y="0cm" viewBox="0 0 7.8 10" enable-background="new 0 0 7.8 10" xml:space="preserve"><path d="M7.5,8.95 L7.5,9.4 7.5,9.85 7.5,10 A1.5,1.5 0 0,1 6,11.5 L3,11.5 A1.5,1.5 90 0,1 1.5,10 L1.5,9.85 1.5,9.4 1.5,8.95 1.5,4.05 1.5,3.6 1.5,3.15 1.5,3 A1.5,1.5 180 0,1 3,1.5 L6,1.5 A1.5,1.5 270 0,1 7.5,3 L7.5,3.15 7.5,3.6 7.5,4.05 7.5,8.95z" transform="matrix(1,0,0,-1,-0.6,11.5)" fill="rgb(0,0,0)" stroke-linecap="round" stroke-linejoin="round" /><path d="M4.8,2.325 L4.8,10.675 4.2,10.675 4.2,2.325 4.8,2.325z" transform="matrix(1,0,0,-1,-0.6,11.5)" fill="rgb(0,0,0)" stroke-linecap="round" stroke-linejoin="round" /><path d="M4.8,10.675 L4.8,10.875 4.2,10.875 4.2,10.675 4.8,10.675z" transform="matrix(1,0,0,-1,-0.6,11.5)" fill="rgb(0,0,0)" stroke-linecap="round" stroke-linejoin="round" /><path d="M4.8,2.125 L4.2,2.125 4.2,2.325 4.8,2.325 4.8,2.125z" transform="matrix(1,0,0,-1,-0.6,11.5)" fill="rgb(0,0,0)" stroke-linecap="round" stroke-linejoin="round" /><path d="M1.05,3.15 A0.45,0.45 270 0,1 1.5,3.6 A0.45,0.45 0.0000023 0,1 1.05,4.05 A0.45,0.45 90 0,1 1.05,3.15z" transform="matrix(1,0,0,-1,-0.6,11.5)" fill="rgb(0,0,0)" stroke-linecap="round" stroke-linejoin="round" /><path d="M1.5,4.05 L1.5,3.6 A0.45,0.45 0.0000023 0,1 1.05,4.05 L1.5,4.05z" transform="matrix(1,0,0,-1,-0.6,11.5)" fill="rgb(0,0,0)" stroke-linecap="round" stroke-linejoin="round" /><path d="M1.5,3.15 L1.05,3.15 A0.45,0.45 270 0,1 1.5,3.6 L1.5,3.15z" transform="matrix(1,0,0,-1,-0.6,11.5)" fill="rgb(0,0,0)" stroke-linecap="round" stroke-linejoin="round" /><path d="M1.05,8.95 A0.45,0.45 270 0,1 1.5,9.4 A0.45,0.45 0.0000015 0,1 1.05,9.85 A0.45,0.45 90 0,1 1.05,8.95z" transform="matrix(1,0,0,-1,-0.6,11.5)" fill="rgb(0,0,0)" stroke-linecap="round" stroke-linejoin="round" /><path d="M1.5,9.85 L1.5,9.4 A0.45,0.45 0.0000015 0,1 1.05,9.85 L1.5,9.85z" transform="matrix(1,0,0,-1,-0.6,11.5)" fill="rgb(0,0,0)" stroke-linecap="round" stroke-linejoin="round" /><path d="M1.5,8.95 L1.05,8.95 A0.45,0.45 270 0,1 1.5,9.4 L1.5,8.95z" transform="matrix(1,0,0,-1,-0.6,11.5)" fill="rgb(0,0,0)" stroke-linecap="round" stroke-linejoin="round" /><path d="M7.95,9.85 A0.45,0.45 90 0,1 7.5,9.4 A0.45,0.45 180 0,1 7.95,8.95 A0.45,0.45 270 0,1 7.95,9.85z" transform="matrix(1,0,0,-1,-0.6,11.5)" fill="rgb(0,0,0)" stroke-linecap="round" stroke-linejoin="round" /><path d="M7.5,9.4 A0.45,0.45 180 0,0 7.95,9.85 L7.5,9.85 7.5,9.4z" transform="matrix(1,0,0,-1,-0.6,11.5)" fill="rgb(0,0,0)" stroke-linecap="round" stroke-linejoin="round" /><path d="M7.5,8.95 L7.5,9.4 A0.45,0.45 180 0,1 7.95,8.95 L7.5,8.95z" transform="matrix(1,0,0,-1,-0.6,11.5)" fill="rgb(0,0,0)" stroke-linecap="round" stroke-linejoin="round" /><path d="M7.95,4.05 A0.45,0.45 90 0,1 7.5,3.6 A0.45,0.45 180.0000023 0,1 7.95,3.15 A0.45,0.45 270 0,1 7.95,4.05z" transform="matrix(1,0,0,-1,-0.6,11.5)" fill="rgb(0,0,0)" stroke-linecap="round" stroke-linejoin="round" /><path d="M7.5,3.15 L7.5,3.6 A0.45,0.45 180.0000023 0,1 7.95,3.15 L7.5,3.15z" transform="matrix(1,0,0,-1,-0.6,11.5)" fill="rgb(0,0,0)" stroke-linecap="round" stroke-linejoin="round" /><path d="M7.5,4.05 L7.95,4.05 A0.45,0.45 90 0,1 7.5,3.6 L7.5,4.05z" transform="matrix(1,0,0,-1,-0.6,11.5)" fill="rgb(0,0,0)" stroke-linecap="round" stroke-linejoin="round" /><path d="M4.8,2.1 L6,2.1 A0.9,0.9 270 0,1 6.9,3 L6.9,10 A0.9,0.9 0 0,1 6,10.9 L4.8,10.9 4.8,10.875 4.2,10.875 4.2,10.9 3,10.9 A0.9,0.9 90 0,1 2.1,10 L2.1,3 A0.9,0.9 180 0,1 3,2.1 L4.2,2.1 4.2,2.125 4.8,2.125 4.8,2.1z" transform="matrix(1,0,0,-1,-0.6,11.5)" fill="rgb(255,255,255)" stroke="rgb(0,0,0)" stroke-width="0.0010cm" stroke-linecap="round" stroke-linejoin="round" /></svg>