<?xml version="1.0" encoding="utf-8"?>
<!-- Generator: Fusion 360, Shaper Origin Export Add-In, Version 1.7.0  -->
<svg xmlns="http://www.w3.org/2000/svg" xmlns:xlink="http://www.w3.org/1999/xlink" xmlns:shaper="http://www.shapertools.com/namespaces/shaper" shaper:fusionaddin="version:1.7.0" width="6cm" height="10cm" version="1.1" x="0cm" y="0cm" viewBox="0 0 6 10" enable-background="new 0 0 6 10" xml:space="preserve"><path d="M3,10.9 L3,11.5 A1.5,1.5 90 0,1 1.5,10 L1.5,7 2.1,7 2.1,10 A0.9,0.9 180 0,0 3,10.9z" transform="matrix(1,0,0,-1,-1.5,11.5)" fill="rgb(0,0,0)" stroke-linecap="round" stroke-linejoin="round" /><path d="M4.2,10.875 L4.2,10.9 3,10.9 3,11.5 6,11.5 6,10.9 4.8,10.9 4.8,10.875 4.2,10.875z" transform="matrix(1,0,0,-1,-1.5,11.5)" fill="rgb(0,0,0)" stroke-linecap="round" stroke-linejoin="round" /><path d="M6.9,10 L6.9,7 7.5,7 7.5,10 A1.5,1.5 0 0,1 6,11.5 L6,10.9 A0.9,0.9 90 0,0 6.9,10z" transform="matrix(1,0,0,-1,-1.5,11.5)" fill="rgb(0,0,0)" stroke-linecap="round" stroke-linejoin="round" /><path d="M4.8,7 L4.2,7 4.2,10.675 4.8,10.675 4.8,7z" transform="matrix(1,0,0,-1,-1.5,11.5)" fill="rgb(0,0,0)" stroke-linecap="round" stroke-linejoin="round" /><path d="M4.2,10.675 L4.2,10.875 4.8,10.875 4.8,10.675 4.2,10.675z" transform="matrix(1,0,0,-1,-1.5,11.5)" fill="rgb(0,0,0)" stroke-linecap="round" stroke-linejoin="round" /><path d="M4.8,6 L4.2,6 4.2,7 4.8,7 4.8,6z" transform="matrix(1,0,0,-1,-1.5,11.5)" fill="rgb(0,0,0)" stroke-linecap="round" stroke-linejoin="round" /><path d="M2.1,6 L1.5,6 1.5,7 2.1,7 2.1,6z" transform="matrix(1,0,0,-1,-1.5,11.5)" fill="rgb(0,0,0)" stroke-linecap="round" stroke-linejoin="round" /><path d="M2.1,4.5 L1.5,4.5 1.5,6 2.1,6 2.1,4.5z" transform="matrix(1,0,0,-1,-1.5,11.5)" fill="rgb(0,0,0)" stroke-linecap="round" stroke-linejoin="round" /><path d="M3,1.5 A1.5,1.5 270 0,0 1.5,3 L1.5,4.5 2.1,4.5 2.1,3 A0.9,0.9 180 0,1 3,2.1 L3,1.5z" transform="matrix(1,0,0,-1,-1.5,11.5)" fill="rgb(0,0,0)" stroke-linecap="round" stroke-linejoin="round" /><path d="M6,2.1 L6,1.5 3,1.5 3,2.1 4.2,2.1 4.2,2.125 4.8,2.125 4.8,2.1 6,2.1z" transform="matrix(1,0,0,-1,-1.5,11.5)" fill="rgb(0,0,0)" stroke-linecap="round" stroke-linejoin="round" /><path d="M4.8,2.325 L4.2,2.325 4.2,2.125 4.8,2.125 4.8,2.325z" transform="matrix(1,0,0,-1,-1.5,11.5)" fill="rgb(0,0,0)" stroke-linecap="round" stroke-linejoin="round" /><path d="M4.8,4.5 L4.2,4.5 4.2,2.325 4.8,2.325 4.8,4.5z" transform="matrix(1,0,0,-1,-1.5,11.5)" fill="rgb(0,0,0)" stroke-linecap="round" stroke-linejoin="round" /><path d="M4.8,4.5 L4.2,4.5 4.2,6 4.8,6 4.8,4.5z" transform="matrix(1,0,0,-1,-1.5,11.5)" fill="rgb(0,0,0)" stroke-linecap="round" stroke-linejoin="round" /><path d="M7.5,4.5 L7.5,3 A1.5,1.5 0 0,0 6,1.5 L6,2.1 A0.9,0.9 270 0,1 6.9,3 L6.9,4.5 7.5,4.5z" transform="matrix(1,0,0,-1,-1.5,11.5)" fill="rgb(0,0,0)" stroke-linecap="round" stroke-linejoin="round" /><path d="M7.5,6 L7.5,4.5 6.9,4.5 6.9,6 7.5,6z" transform="matrix(1,0,0,-1,-1.5,11.5)" fill="rgb(0,0,0)" stroke-linecap="round" stroke-linejoin="round" /><path d="M7.5,7 L7.5,6 6.9,6 6.9,7 7.5,7z" transform="matrix(1,0,0,-1,-1.5,11.5)" fill="rgb(0,0,0)" stroke-linecap="round" stroke-linejoin="round" /></svg>