<?xml version="1.0" encoding="utf-8"?>
<!-- Generator: Fusion 360, Shaper Origin Export Add-In, Version 1.7.0  -->
<svg xmlns="http://www.w3.org/2000/svg" xmlns:xlink="http://www.w3.org/1999/xlink" xmlns:shaper="http://www.shapertools.com/namespaces/shaper" shaper:fusionaddin="version:1.7.0" width="4.2cm" height="8.2cm" version="1.1" x="0cm" y="0cm" viewBox="0 0 4.2 8.2" enable-background="new 0 0 4.2 8.2" xml:space="preserve"><path d="M1.4,8.5 L1.4,2.5 A1.1,1.1 180 0,1 2.5,1.4 L4.5,1.4 A1.1,1.1 270 0,1 5.6,2.5 L5.6,8.5 A1.1,1.1 0 0,1 4.5,9.6 L2.5,9.6 A1.1,1.1 90 0,1 1.4,8.5z" transform="matrix(1,0,0,-1,-1.4,9.6)" fill="rgb(0,0,0)" stroke-linecap="round" stroke-linejoin="round" /><path d="M3.8,2 L3.8,9 4.5,9 A0.5,0.5 90 0,0 5,8.5 L5,2.5 A0.5,0.5 0 0,0 4.5,2 L3.8,2z" transform="matrix(1,0,0,-1,-1.4,9.6)" fill="rgb(255,255,255)" stroke="rgb(0,0,0)" stroke-width="0.0010cm" stroke-linecap="round" stroke-linejoin="round" /><path d="M2,8.5 A0.5,0.5 180 0,0 2.5,9 L3.2,9 3.2,2 2.5,2 A0.5,0.5 270 0,0 2,2.5 L2,8.5z" transform="matrix(1,0,0,-1,-1.4,9.6)" fill="rgb(255,255,255)" stroke="rgb(0,0,0)" stroke-width="0.0010cm" stroke-linecap="round" stroke-linejoin="round" /></svg>