<?xml version="1.0" encoding="UTF-8"?>
<svg id="Layer_1" data-name="Layer 1" xmlns="http://www.w3.org/2000/svg" viewBox="0 0 168.94 282.33">
  <defs>
    <style>
      .cls-1 {
        fill: #000;
        stroke-width: 0px;
      }
    </style>
  </defs>
  <path class="cls-1" d="M112.82,0h-56.69C25.13,0,0,25.13,0,56.13v170.07c0,31,25.13,56.13,56.13,56.13h56.69c31,0,56.12-25.13,56.12-56.13V56.13c0-31-25.12-56.13-56.12-56.13ZM73.13,259.65h-17c-18.48,0-33.45-14.98-33.45-33.45V56.13c0-18.47,14.97-33.45,33.45-33.45h17v236.97ZM146.27,226.2c0,18.47-14.98,33.45-33.45,33.45h-17.01V22.68h17.01c18.47,0,33.45,14.98,33.45,33.45v170.07Z"/>
</svg>