<?xml version="1.0" encoding="utf-8"?>
<!-- Generator: Fusion 360, Shaper Origin Export Add-In, Version 1.7.0  -->
<svg xmlns="http://www.w3.org/2000/svg" xmlns:xlink="http://www.w3.org/1999/xlink" xmlns:shaper="http://www.shapertools.com/namespaces/shaper" shaper:fusionaddin="version:1.7.0" width="4cm" height="3.4cm" version="1.1" x="0cm" y="0cm" viewBox="0 0 4 3.4" enable-background="new 0 0 4 3.4" xml:space="preserve"><path d="M2.65,4.775 A0.5,0.5 270 0,1 3.15,5.275 A0.5,0.5 0 0,1 2.15,5.275 A0.5,0.5 180 0,1 2.65,4.775z" transform="matrix(1,0,0,-1,-2.15,5.775)" fill="rgb(0,0,0)" stroke-linecap="round" stroke-linejoin="round" /><path d="M2.4,5.275 a0.25,0.25 0 1,1 0.5,0 a0.25,0.25 0 1,1 -0.5,0z" transform="matrix(1,0,0,-1,-2.15,5.775)" fill="rgb(0,0,0)" stroke-linecap="round" stroke-linejoin="round" /><path d="M2.65,4.775 L2.15,4.775 2.15,5.275 A0.5,0.5 180 0,1 2.65,4.775z" transform="matrix(1,0,0,-1,-2.15,5.775)" fill="rgb(0,0,0)" stroke-linecap="round" stroke-linejoin="round" /><path d="M6.15,4.775 L6.15,3.375 5.65,3.375 5.15,3.375 3.15,3.375 2.65,3.375 2.15,3.375 2.15,4.775 2.65,4.775 3.15,4.775 5.15,4.775 5.65,4.775 6.15,4.775z" transform="matrix(1,0,0,-1,-2.15,5.775)" fill="rgb(0,0,0)" stroke-linecap="round" stroke-linejoin="round" /><path d="M2.25,4.675 L6.05,4.675 6.05,3.475 2.25,3.475 2.25,4.675z" transform="matrix(1,0,0,-1,-2.15,5.775)" fill="rgb(0,0,0)" stroke-linecap="round" stroke-linejoin="round" /><path d="M2.8,4.65 L2.8,3.5 5.3,3.5 5.3,4.65 2.8,4.65z" transform="matrix(1,0,0,-1,-2.15,5.775)" fill="rgb(0,0,0)" stroke-linecap="round" stroke-linejoin="round" /><path d="M3.15,4.775 L2.65,4.775 A0.5,0.5 270 0,1 3.15,5.275 L3.15,4.775z" transform="matrix(1,0,0,-1,-2.15,5.775)" fill="rgb(0,0,0)" stroke-linecap="round" stroke-linejoin="round" /><path d="M5.65,4.775 L5.15,4.775 5.15,5.275 A0.5,0.5 180 0,1 5.65,4.775z" transform="matrix(1,0,0,-1,-2.15,5.775)" fill="rgb(0,0,0)" stroke-linecap="round" stroke-linejoin="round" /><path d="M5.4,5.275 a0.25,0.25 0 1,1 0.5,0 a0.25,0.25 0 1,1 -0.5,0z" transform="matrix(1,0,0,-1,-2.15,5.775)" fill="rgb(0,0,0)" stroke-linecap="round" stroke-linejoin="round" /><path d="M6.15,5.275 A0.5,0.5 0 0,0 5.65,4.775 L6.15,4.775 6.15,5.275z" transform="matrix(1,0,0,-1,-2.15,5.775)" fill="rgb(0,0,0)" stroke-linecap="round" stroke-linejoin="round" /><path d="M5.65,4.775 A0.5,0.5 270 0,1 6.15,5.275 A0.5,0.5 0 0,1 5.15,5.275 A0.5,0.5 180 0,1 5.65,4.775z" transform="matrix(1,0,0,-1,-2.15,5.775)" fill="rgb(0,0,0)" stroke-linecap="round" stroke-linejoin="round" /><path d="M5.65,3.375 A0.5,0.5 90 0,1 5.15,2.875 A0.5,0.5 180 0,1 6.15,2.875 A0.5,0.5 0 0,1 5.65,3.375z" transform="matrix(1,0,0,-1,-2.15,5.775)" fill="rgb(0,0,0)" stroke-linecap="round" stroke-linejoin="round" /><path d="M5.4,2.875 a0.25,0.25 0 1,1 0.5,0 a0.25,0.25 0 1,1 -0.5,0z" transform="matrix(1,0,0,-1,-2.15,5.775)" fill="rgb(0,0,0)" stroke-linecap="round" stroke-linejoin="round" /><path d="M5.15,3.375 L5.65,3.375 A0.5,0.5 90 0,1 5.15,2.875 L5.15,3.375z" transform="matrix(1,0,0,-1,-2.15,5.775)" fill="rgb(0,0,0)" stroke-linecap="round" stroke-linejoin="round" /><path d="M5.65,3.375 L6.15,3.375 6.15,2.875 A0.5,0.5 0 0,1 5.65,3.375z" transform="matrix(1,0,0,-1,-2.15,5.775)" fill="rgb(0,0,0)" stroke-linecap="round" stroke-linejoin="round" /><path d="M2.4,2.875 a0.25,0.25 0 1,1 0.5,0 a0.25,0.25 0 1,1 -0.5,0z" transform="matrix(1,0,0,-1,-2.15,5.775)" fill="rgb(0,0,0)" stroke-linecap="round" stroke-linejoin="round" /><path d="M2.65,3.375 A0.5,0.5 90 0,1 2.15,2.875 A0.5,0.5 180 0,1 3.15,2.875 A0.5,0.5 0 0,1 2.65,3.375z" transform="matrix(1,0,0,-1,-2.15,5.775)" fill="rgb(0,0,0)" stroke-linecap="round" stroke-linejoin="round" /><path d="M2.65,3.375 L3.15,3.375 3.15,2.875 A0.5,0.5 0 0,1 2.65,3.375z" transform="matrix(1,0,0,-1,-2.15,5.775)" fill="rgb(0,0,0)" stroke-linecap="round" stroke-linejoin="round" /><path d="M2.15,3.375 L2.65,3.375 A0.5,0.5 90 0,1 2.15,2.875 L2.15,3.375z" transform="matrix(1,0,0,-1,-2.15,5.775)" fill="rgb(0,0,0)" stroke-linecap="round" stroke-linejoin="round" /><path d="M5.4,5.275 a0.25,0.25 0 1,1 0.5,0 a0.25,0.25 0 1,1 -0.5,0z" transform="matrix(1,0,0,-1,-2.15,5.775)" fill="rgb(255,255,255)" stroke="rgb(0,0,0)" stroke-width="0.0010cm" stroke-linecap="round" stroke-linejoin="round" /><path d="M2.25,3.475 L2.25,4.675 6.05,4.675 6.05,3.475 2.25,3.475z" transform="matrix(1,0,0,-1,-2.15,5.775)" fill="rgb(255,255,255)" stroke="rgb(0,0,0)" stroke-width="0.0010cm" stroke-linecap="round" stroke-linejoin="round" /><path d="M5.4,2.875 a0.25,0.25 0 1,1 0.5,0 a0.25,0.25 0 1,1 -0.5,0z" transform="matrix(1,0,0,-1,-2.15,5.775)" fill="rgb(255,255,255)" stroke="rgb(0,0,0)" stroke-width="0.0010cm" stroke-linecap="round" stroke-linejoin="round" /><path d="M2.4,2.875 a0.25,0.25 0 1,1 0.5,0 a0.25,0.25 0 1,1 -0.5,0z" transform="matrix(1,0,0,-1,-2.15,5.775)" fill="rgb(255,255,255)" stroke="rgb(0,0,0)" stroke-width="0.0010cm" stroke-linecap="round" stroke-linejoin="round" /><path d="M2.4,5.275 a0.25,0.25 0 1,1 0.5,0 a0.25,0.25 0 1,1 -0.5,0z" transform="matrix(1,0,0,-1,-2.15,5.775)" fill="rgb(255,255,255)" stroke="rgb(0,0,0)" stroke-width="0.0010cm" stroke-linecap="round" stroke-linejoin="round" /><path d="M2.8,3.5 L5.3,3.5 5.3,4.65 2.8,4.65 2.8,3.5z" transform="matrix(1,0,0,-1,-2.15,5.775)" fill="rgb(255,255,255)" stroke="rgb(0,0,0)" stroke-width="0.0010cm" stroke-linecap="round" stroke-linejoin="round" /></svg>